<svg xmlns="http://www.w3.org/2000/svg" viewBox="0 0 110 62"><defs><linearGradient id="steel" x1="0" x2="0" y1="0" y2="1"><stop stop-color="#eee3c8"/><stop offset=".25" stop-color="#85705c"/><stop offset=".52" stop-color="#d9c8a1"/><stop offset=".76" stop-color="#685745"/><stop offset="1" stop-color="#bba584"/></linearGradient></defs><ellipse cx="21" cy="37" rx="12" ry="6" fill="#392d23" opacity=".5"/><ellipse cx="88" cy="37" rx="12" ry="6" fill="#392d23" opacity=".5"/><path d="M20 39 C7 37 10 12 24 11 L85 10 C105 11 102 39 88 40" stroke="#2c2119" stroke-width="11" fill="none" opacity=".18" transform="translate(2 4)"/><path d="M20 36 C8 33 13 13 25 13 L84 12 C99 14 99 34 87 36" stroke="#463828" stroke-width="10" fill="none" stroke-linecap="round"/><path d="M20 36 C8 33 13 13 25 13 L84 12 C99 14 99 34 87 36" stroke="url(#steel)" stroke-width="6" fill="none" stroke-linecap="round"/><path d="M17 24 Q17 17 28 17 L80 16" stroke="#efe1bd" stroke-width="1.6" fill="none" opacity=".8"/><path d="M35 12 L36 18 M64 12 L65 17" stroke="#73604b" stroke-width="1" opacity=".55"/></svg>